<svg id="visual" viewBox="0 0 900 600" width="900" height="600" xmlns="http://www.w3.org/2000/svg" xmlns:xlink="http://www.w3.org/1999/xlink" version="1.1"><rect x="0" y="0" width="900" height="600" fill="#FFF"></rect><defs><linearGradient id="grad1_0" x1="33.3%" y1="0%" x2="100%" y2="100%"><stop offset="20%" stop-color="#6fabab" stop-opacity="1"></stop><stop offset="80%" stop-color="#6fabab" stop-opacity="1"></stop></linearGradient></defs><defs><linearGradient id="grad1_1" x1="33.3%" y1="0%" x2="100%" y2="100%"><stop offset="20%" stop-color="#6fabab" stop-opacity="1"></stop><stop offset="80%" stop-color="#84b7b7" stop-opacity="1"></stop></linearGradient></defs><defs><linearGradient id="grad1_2" x1="33.3%" y1="0%" x2="100%" y2="100%"><stop offset="20%" stop-color="#99c3c2" stop-opacity="1"></stop><stop offset="80%" stop-color="#84b7b7" stop-opacity="1"></stop></linearGradient></defs><defs><linearGradient id="grad1_3" x1="33.3%" y1="0%" x2="100%" y2="100%"><stop offset="20%" stop-color="#99c3c2" stop-opacity="1"></stop><stop offset="80%" stop-color="#adcfce" stop-opacity="1"></stop></linearGradient></defs><defs><linearGradient id="grad1_4" x1="33.3%" y1="0%" x2="100%" y2="100%"><stop offset="20%" stop-color="#c2dbda" stop-opacity="1"></stop><stop offset="80%" stop-color="#adcfce" stop-opacity="1"></stop></linearGradient></defs><defs><linearGradient id="grad1_5" x1="33.3%" y1="0%" x2="100%" y2="100%"><stop offset="20%" stop-color="#c2dbda" stop-opacity="1"></stop><stop offset="80%" stop-color="#d6e7e6" stop-opacity="1"></stop></linearGradient></defs><defs><linearGradient id="grad1_6" x1="33.3%" y1="0%" x2="100%" y2="100%"><stop offset="20%" stop-color="#eaf3f3" stop-opacity="1"></stop><stop offset="80%" stop-color="#d6e7e6" stop-opacity="1"></stop></linearGradient></defs><defs><linearGradient id="grad1_7" x1="33.3%" y1="0%" x2="100%" y2="100%"><stop offset="20%" stop-color="#eaf3f3" stop-opacity="1"></stop><stop offset="80%" stop-color="#ffffff" stop-opacity="1"></stop></linearGradient></defs><defs><linearGradient id="grad2_0" x1="0%" y1="0%" x2="66.7%" y2="100%"><stop offset="20%" stop-color="#6fabab" stop-opacity="1"></stop><stop offset="80%" stop-color="#6fabab" stop-opacity="1"></stop></linearGradient></defs><defs><linearGradient id="grad2_1" x1="0%" y1="0%" x2="66.7%" y2="100%"><stop offset="20%" stop-color="#84b7b7" stop-opacity="1"></stop><stop offset="80%" stop-color="#6fabab" stop-opacity="1"></stop></linearGradient></defs><defs><linearGradient id="grad2_2" x1="0%" y1="0%" x2="66.7%" y2="100%"><stop offset="20%" stop-color="#84b7b7" stop-opacity="1"></stop><stop offset="80%" stop-color="#99c3c2" stop-opacity="1"></stop></linearGradient></defs><defs><linearGradient id="grad2_3" x1="0%" y1="0%" x2="66.7%" y2="100%"><stop offset="20%" stop-color="#adcfce" stop-opacity="1"></stop><stop offset="80%" stop-color="#99c3c2" stop-opacity="1"></stop></linearGradient></defs><defs><linearGradient id="grad2_4" x1="0%" y1="0%" x2="66.7%" y2="100%"><stop offset="20%" stop-color="#adcfce" stop-opacity="1"></stop><stop offset="80%" stop-color="#c2dbda" stop-opacity="1"></stop></linearGradient></defs><defs><linearGradient id="grad2_5" x1="0%" y1="0%" x2="66.7%" y2="100%"><stop offset="20%" stop-color="#d6e7e6" stop-opacity="1"></stop><stop offset="80%" stop-color="#c2dbda" stop-opacity="1"></stop></linearGradient></defs><defs><linearGradient id="grad2_6" x1="0%" y1="0%" x2="66.7%" y2="100%"><stop offset="20%" stop-color="#d6e7e6" stop-opacity="1"></stop><stop offset="80%" stop-color="#eaf3f3" stop-opacity="1"></stop></linearGradient></defs><defs><linearGradient id="grad2_7" x1="0%" y1="0%" x2="66.7%" y2="100%"><stop offset="20%" stop-color="#ffffff" stop-opacity="1"></stop><stop offset="80%" stop-color="#eaf3f3" stop-opacity="1"></stop></linearGradient></defs><g transform="translate(900, 0)"><path d="M0 378.6C-54.3 348.7 -108.6 318.8 -168 291C-227.4 263.2 -291.9 237.4 -327.9 189.3C-363.8 141.1 -371.2 70.6 -378.6 0L0 0Z" fill="#f5f9f9"></path><path d="M0 331.3C-47.5 305.1 -95 278.9 -147 254.6C-199 230.3 -255.4 207.8 -286.9 165.6C-318.3 123.5 -324.8 61.7 -331.3 0L0 0Z" fill="#e0edec"></path><path d="M0 283.9C-40.7 261.5 -81.4 239.1 -126 218.2C-170.6 197.4 -218.9 178.1 -245.9 142C-272.9 105.9 -278.4 52.9 -283.9 0L0 0Z" fill="#cce1e0"></path><path d="M0 236.6C-33.9 217.9 -67.9 199.2 -105 181.9C-142.1 164.5 -182.4 148.4 -204.9 118.3C-227.4 88.2 -232 44.1 -236.6 0L0 0Z" fill="#b8d5d4"></path><path d="M0 189.3C-27.1 174.3 -54.3 159.4 -84 145.5C-113.7 131.6 -146 118.7 -163.9 94.6C-181.9 70.6 -185.6 35.3 -189.3 0L0 0Z" fill="#a3c9c8"></path><path d="M0 142C-20.4 130.8 -40.7 119.5 -63 109.1C-85.3 98.7 -109.5 89 -122.9 71C-136.4 52.9 -139.2 26.5 -142 0L0 0Z" fill="#8fbdbc"></path><path d="M0 94.6C-13.6 87.2 -27.1 79.7 -42 72.7C-56.9 65.8 -73 59.4 -82 47.3C-91 35.3 -92.8 17.6 -94.6 0L0 0Z" fill="#7ab1b1"></path><path d="M0 47.3C-6.8 43.6 -13.6 39.8 -21 36.4C-28.4 32.9 -36.5 29.7 -41 23.7C-45.5 17.6 -46.4 8.8 -47.3 0L0 0Z" fill="#6fabab"></path></g><g transform="translate(0, 600)"><path d="M0 -378.6C65.8 -368.5 131.7 -358.3 189.3 -327.9C246.9 -297.4 296.3 -246.5 326.5 -188.5C356.7 -130.5 367.6 -65.2 378.6 0L0 0Z" fill="#f5f9f9"></path><path d="M0 -331.3C57.6 -322.4 115.2 -313.6 165.6 -286.9C216 -260.2 259.3 -215.7 285.7 -164.9C312.1 -114.2 321.7 -57.1 331.3 0L0 0Z" fill="#e0edec"></path><path d="M0 -283.9C49.4 -276.3 98.8 -268.8 142 -245.9C185.2 -223 222.2 -184.9 244.9 -141.4C267.5 -97.8 275.7 -48.9 283.9 0L0 0Z" fill="#cce1e0"></path><path d="M0 -236.6C41.1 -230.3 82.3 -224 118.3 -204.9C154.3 -185.9 185.2 -154.1 204.1 -117.8C222.9 -81.5 229.8 -40.8 236.6 0L0 0Z" fill="#b8d5d4"></path><path d="M0 -189.3C32.9 -184.2 65.8 -179.2 94.6 -163.9C123.5 -148.7 148.2 -123.3 163.2 -94.3C178.3 -65.2 183.8 -32.6 189.3 0L0 0Z" fill="#a3c9c8"></path><path d="M0 -142C24.7 -138.2 49.4 -134.4 71 -122.9C92.6 -111.5 111.1 -92.5 122.4 -70.7C133.8 -48.9 137.9 -24.5 142 0L0 0Z" fill="#8fbdbc"></path><path d="M0 -94.6C16.5 -92.1 32.9 -89.6 47.3 -82C61.7 -74.3 74.1 -61.6 81.6 -47.1C89.2 -32.6 91.9 -16.3 94.6 0L0 0Z" fill="#7ab1b1"></path><path d="M0 -47.3C8.2 -46.1 16.5 -44.8 23.7 -41C30.9 -37.2 37 -30.8 40.8 -23.6C44.6 -16.3 46 -8.2 47.3 0L0 0Z" fill="#6fabab"></path></g></svg>