<svg id="visual" viewBox="0 0 900 600" width="900" height="600" xmlns="http://www.w3.org/2000/svg" xmlns:xlink="http://www.w3.org/1999/xlink" version="1.1"><rect x="0" y="0" width="900" height="600" fill="#FFF"></rect><defs><linearGradient id="grad1_0" x1="33.3%" y1="0%" x2="100%" y2="100%"><stop offset="20%" stop-color="#008080" stop-opacity="1"></stop><stop offset="80%" stop-color="#008080" stop-opacity="1"></stop></linearGradient></defs><defs><linearGradient id="grad1_1" x1="33.3%" y1="0%" x2="100%" y2="100%"><stop offset="20%" stop-color="#008080" stop-opacity="1"></stop><stop offset="80%" stop-color="#409291" stop-opacity="1"></stop></linearGradient></defs><defs><linearGradient id="grad1_2" x1="33.3%" y1="0%" x2="100%" y2="100%"><stop offset="20%" stop-color="#64a3a3" stop-opacity="1"></stop><stop offset="80%" stop-color="#409291" stop-opacity="1"></stop></linearGradient></defs><defs><linearGradient id="grad1_3" x1="33.3%" y1="0%" x2="100%" y2="100%"><stop offset="20%" stop-color="#64a3a3" stop-opacity="1"></stop><stop offset="80%" stop-color="#84b5b4" stop-opacity="1"></stop></linearGradient></defs><defs><linearGradient id="grad1_4" x1="33.3%" y1="0%" x2="100%" y2="100%"><stop offset="20%" stop-color="#a3c7c7" stop-opacity="1"></stop><stop offset="80%" stop-color="#84b5b4" stop-opacity="1"></stop></linearGradient></defs><defs><linearGradient id="grad1_5" x1="33.3%" y1="0%" x2="100%" y2="100%"><stop offset="20%" stop-color="#a3c7c7" stop-opacity="1"></stop><stop offset="80%" stop-color="#c1dad9" stop-opacity="1"></stop></linearGradient></defs><defs><linearGradient id="grad1_6" x1="33.3%" y1="0%" x2="100%" y2="100%"><stop offset="20%" stop-color="#e0ecec" stop-opacity="1"></stop><stop offset="80%" stop-color="#c1dad9" stop-opacity="1"></stop></linearGradient></defs><defs><linearGradient id="grad1_7" x1="33.3%" y1="0%" x2="100%" y2="100%"><stop offset="20%" stop-color="#e0ecec" stop-opacity="1"></stop><stop offset="80%" stop-color="#ffffff" stop-opacity="1"></stop></linearGradient></defs><defs><linearGradient id="grad2_0" x1="0%" y1="0%" x2="66.7%" y2="100%"><stop offset="20%" stop-color="#008080" stop-opacity="1"></stop><stop offset="80%" stop-color="#008080" stop-opacity="1"></stop></linearGradient></defs><defs><linearGradient id="grad2_1" x1="0%" y1="0%" x2="66.7%" y2="100%"><stop offset="20%" stop-color="#409291" stop-opacity="1"></stop><stop offset="80%" stop-color="#008080" stop-opacity="1"></stop></linearGradient></defs><defs><linearGradient id="grad2_2" x1="0%" y1="0%" x2="66.7%" y2="100%"><stop offset="20%" stop-color="#409291" stop-opacity="1"></stop><stop offset="80%" stop-color="#64a3a3" stop-opacity="1"></stop></linearGradient></defs><defs><linearGradient id="grad2_3" x1="0%" y1="0%" x2="66.7%" y2="100%"><stop offset="20%" stop-color="#84b5b4" stop-opacity="1"></stop><stop offset="80%" stop-color="#64a3a3" stop-opacity="1"></stop></linearGradient></defs><defs><linearGradient id="grad2_4" x1="0%" y1="0%" x2="66.7%" y2="100%"><stop offset="20%" stop-color="#84b5b4" stop-opacity="1"></stop><stop offset="80%" stop-color="#a3c7c7" stop-opacity="1"></stop></linearGradient></defs><defs><linearGradient id="grad2_5" x1="0%" y1="0%" x2="66.7%" y2="100%"><stop offset="20%" stop-color="#c1dad9" stop-opacity="1"></stop><stop offset="80%" stop-color="#a3c7c7" stop-opacity="1"></stop></linearGradient></defs><defs><linearGradient id="grad2_6" x1="0%" y1="0%" x2="66.7%" y2="100%"><stop offset="20%" stop-color="#c1dad9" stop-opacity="1"></stop><stop offset="80%" stop-color="#e0ecec" stop-opacity="1"></stop></linearGradient></defs><defs><linearGradient id="grad2_7" x1="0%" y1="0%" x2="66.7%" y2="100%"><stop offset="20%" stop-color="#ffffff" stop-opacity="1"></stop><stop offset="80%" stop-color="#e0ecec" stop-opacity="1"></stop></linearGradient></defs><g transform="translate(900, 0)"><path d="M0 540.8C-108.3 534.6 -216.6 528.4 -270.4 468.4C-324.2 408.4 -323.4 294.5 -359.4 207.5C-395.4 120.5 -468.1 60.2 -540.8 0L0 0Z" fill="#eff6f5"></path><path d="M0 473.2C-94.8 467.8 -189.6 462.3 -236.6 409.8C-283.7 357.3 -283 257.7 -314.5 181.6C-346 105.4 -409.6 52.7 -473.2 0L0 0Z" fill="#d1e3e2"></path><path d="M0 405.6C-81.2 401 -162.5 396.3 -202.8 351.3C-243.1 306.3 -242.6 220.9 -269.6 155.6C-296.5 90.4 -351.1 45.2 -405.6 0L0 0Z" fill="#b2d1d0"></path><path d="M0 338C-67.7 334.1 -135.4 330.2 -169 292.7C-202.6 255.2 -202.1 184.1 -224.6 129.7C-247.1 75.3 -292.6 37.6 -338 0L0 0Z" fill="#93bebd"></path><path d="M0 270.4C-54.2 267.3 -108.3 264.2 -135.2 234.2C-162.1 204.2 -161.7 147.3 -179.7 103.8C-197.7 60.2 -234.1 30.1 -270.4 0L0 0Z" fill="#74acab"></path><path d="M0 202.8C-40.6 200.5 -81.2 198.1 -101.4 175.6C-121.6 153.1 -121.3 110.4 -134.8 77.8C-148.3 45.2 -175.5 22.6 -202.8 0L0 0Z" fill="#529a9a"></path><path d="M0 135.2C-27.1 133.7 -54.2 132.1 -67.6 117.1C-81 102.1 -80.9 73.6 -89.9 51.9C-98.8 30.1 -117 15.1 -135.2 0L0 0Z" fill="#2a8989"></path><path d="M0 67.6C-13.5 66.8 -27.1 66 -33.8 58.5C-40.5 51 -40.4 36.8 -44.9 25.9C-49.4 15.1 -58.5 7.5 -67.6 0L0 0Z" fill="#008080"></path></g><g transform="translate(0, 600)"><path d="M0 -540.8C61.6 -470.4 123.1 -400 210 -363.7C296.9 -327.5 409 -325.3 468.4 -270.4C527.7 -215.5 534.3 -107.7 540.8 0L0 0Z" fill="#eff6f5"></path><path d="M0 -473.2C53.9 -411.6 107.7 -350 183.7 -318.3C259.8 -286.5 357.9 -284.7 409.8 -236.6C461.8 -188.6 467.5 -94.3 473.2 0L0 0Z" fill="#d1e3e2"></path><path d="M0 -405.6C46.2 -352.8 92.4 -300 157.5 -272.8C222.6 -245.6 306.8 -244 351.3 -202.8C395.8 -161.6 400.7 -80.8 405.6 0L0 0Z" fill="#b2d1d0"></path><path d="M0 -338C38.5 -294 77 -250 131.2 -227.3C185.5 -204.7 255.6 -203.3 292.7 -169C329.8 -134.7 333.9 -67.3 338 0L0 0Z" fill="#93bebd"></path><path d="M0 -270.4C30.8 -235.2 61.6 -200 105 -181.9C148.4 -163.7 204.5 -162.7 234.2 -135.2C263.9 -107.7 267.1 -53.9 270.4 0L0 0Z" fill="#74acab"></path><path d="M0 -202.8C23.1 -176.4 46.2 -150 78.7 -136.4C111.3 -122.8 153.4 -122 175.6 -101.4C197.9 -80.8 200.4 -40.4 202.8 0L0 0Z" fill="#529a9a"></path><path d="M0 -135.2C15.4 -117.6 30.8 -100 52.5 -90.9C74.2 -81.9 102.3 -81.3 117.1 -67.6C131.9 -53.9 133.6 -26.9 135.2 0L0 0Z" fill="#2a8989"></path><path d="M0 -67.6C7.7 -58.8 15.4 -50 26.2 -45.5C37.1 -40.9 51.1 -40.7 58.5 -33.8C66 -26.9 66.8 -13.5 67.6 0L0 0Z" fill="#008080"></path></g></svg>