<svg id="visual" viewBox="0 0 900 600" width="900" height="600" xmlns="http://www.w3.org/2000/svg" xmlns:xlink="http://www.w3.org/1999/xlink" version="1.1"><rect x="0" y="0" width="900" height="600" fill="#FFF"></rect><defs><linearGradient id="grad1_0" x1="33.3%" y1="0%" x2="100%" y2="100%"><stop offset="20%" stop-color="#6fabab" stop-opacity="1"></stop><stop offset="80%" stop-color="#6fabab" stop-opacity="1"></stop></linearGradient></defs><defs><linearGradient id="grad1_1" x1="33.3%" y1="0%" x2="100%" y2="100%"><stop offset="20%" stop-color="#6fabab" stop-opacity="1"></stop><stop offset="80%" stop-color="#84b7b7" stop-opacity="1"></stop></linearGradient></defs><defs><linearGradient id="grad1_2" x1="33.3%" y1="0%" x2="100%" y2="100%"><stop offset="20%" stop-color="#99c3c2" stop-opacity="1"></stop><stop offset="80%" stop-color="#84b7b7" stop-opacity="1"></stop></linearGradient></defs><defs><linearGradient id="grad1_3" x1="33.3%" y1="0%" x2="100%" y2="100%"><stop offset="20%" stop-color="#99c3c2" stop-opacity="1"></stop><stop offset="80%" stop-color="#adcfce" stop-opacity="1"></stop></linearGradient></defs><defs><linearGradient id="grad1_4" x1="33.3%" y1="0%" x2="100%" y2="100%"><stop offset="20%" stop-color="#c2dbda" stop-opacity="1"></stop><stop offset="80%" stop-color="#adcfce" stop-opacity="1"></stop></linearGradient></defs><defs><linearGradient id="grad1_5" x1="33.3%" y1="0%" x2="100%" y2="100%"><stop offset="20%" stop-color="#c2dbda" stop-opacity="1"></stop><stop offset="80%" stop-color="#d6e7e6" stop-opacity="1"></stop></linearGradient></defs><defs><linearGradient id="grad1_6" x1="33.3%" y1="0%" x2="100%" y2="100%"><stop offset="20%" stop-color="#eaf3f3" stop-opacity="1"></stop><stop offset="80%" stop-color="#d6e7e6" stop-opacity="1"></stop></linearGradient></defs><defs><linearGradient id="grad1_7" x1="33.3%" y1="0%" x2="100%" y2="100%"><stop offset="20%" stop-color="#eaf3f3" stop-opacity="1"></stop><stop offset="80%" stop-color="#ffffff" stop-opacity="1"></stop></linearGradient></defs><defs><linearGradient id="grad2_0" x1="0%" y1="0%" x2="66.7%" y2="100%"><stop offset="20%" stop-color="#6fabab" stop-opacity="1"></stop><stop offset="80%" stop-color="#6fabab" stop-opacity="1"></stop></linearGradient></defs><defs><linearGradient id="grad2_1" x1="0%" y1="0%" x2="66.7%" y2="100%"><stop offset="20%" stop-color="#84b7b7" stop-opacity="1"></stop><stop offset="80%" stop-color="#6fabab" stop-opacity="1"></stop></linearGradient></defs><defs><linearGradient id="grad2_2" x1="0%" y1="0%" x2="66.7%" y2="100%"><stop offset="20%" stop-color="#84b7b7" stop-opacity="1"></stop><stop offset="80%" stop-color="#99c3c2" stop-opacity="1"></stop></linearGradient></defs><defs><linearGradient id="grad2_3" x1="0%" y1="0%" x2="66.7%" y2="100%"><stop offset="20%" stop-color="#adcfce" stop-opacity="1"></stop><stop offset="80%" stop-color="#99c3c2" stop-opacity="1"></stop></linearGradient></defs><defs><linearGradient id="grad2_4" x1="0%" y1="0%" x2="66.7%" y2="100%"><stop offset="20%" stop-color="#adcfce" stop-opacity="1"></stop><stop offset="80%" stop-color="#c2dbda" stop-opacity="1"></stop></linearGradient></defs><defs><linearGradient id="grad2_5" x1="0%" y1="0%" x2="66.7%" y2="100%"><stop offset="20%" stop-color="#d6e7e6" stop-opacity="1"></stop><stop offset="80%" stop-color="#c2dbda" stop-opacity="1"></stop></linearGradient></defs><defs><linearGradient id="grad2_6" x1="0%" y1="0%" x2="66.7%" y2="100%"><stop offset="20%" stop-color="#d6e7e6" stop-opacity="1"></stop><stop offset="80%" stop-color="#eaf3f3" stop-opacity="1"></stop></linearGradient></defs><defs><linearGradient id="grad2_7" x1="0%" y1="0%" x2="66.7%" y2="100%"><stop offset="20%" stop-color="#ffffff" stop-opacity="1"></stop><stop offset="80%" stop-color="#eaf3f3" stop-opacity="1"></stop></linearGradient></defs><g transform="translate(900, 0)"><path d="M0 324.5C-46.8 299.3 -93.6 274.2 -144.5 250.3C-195.4 226.4 -250.3 203.8 -281 162.2C-311.7 120.7 -318.1 60.4 -324.5 0L0 0Z" fill="#f5f9f9"></path><path d="M0 283.9C-41 261.9 -81.9 239.9 -126.4 219C-171 198.1 -219.1 178.3 -245.9 142C-272.7 105.7 -278.3 52.8 -283.9 0L0 0Z" fill="#e0edec"></path><path d="M0 243.4C-35.1 224.5 -70.2 205.6 -108.4 187.7C-146.5 169.8 -187.8 152.8 -210.8 121.7C-233.8 90.6 -238.6 45.3 -243.4 0L0 0Z" fill="#cce1e0"></path><path d="M0 202.8C-29.3 187.1 -58.5 171.4 -90.3 156.4C-122.1 141.5 -156.5 127.3 -175.6 101.4C-194.8 75.5 -198.8 37.7 -202.8 0L0 0Z" fill="#b8d5d4"></path><path d="M0 162.2C-23.4 149.7 -46.8 137.1 -72.2 125.1C-97.7 113.2 -125.2 101.9 -140.5 81.1C-155.9 60.4 -159.1 30.2 -162.2 0L0 0Z" fill="#a3c9c8"></path><path d="M0 121.7C-17.6 112.3 -35.1 102.8 -54.2 93.9C-73.3 84.9 -93.9 76.4 -105.4 60.8C-116.9 45.3 -119.3 22.6 -121.7 0L0 0Z" fill="#8fbdbc"></path><path d="M0 81.1C-11.7 74.8 -23.4 68.5 -36.1 62.6C-48.8 56.6 -62.6 50.9 -70.3 40.6C-77.9 30.2 -79.5 15.1 -81.1 0L0 0Z" fill="#7ab1b1"></path><path d="M0 40.6C-5.9 37.4 -11.7 34.3 -18.1 31.3C-24.4 28.3 -31.3 25.5 -35.1 20.3C-39 15.1 -39.8 7.5 -40.6 0L0 0Z" fill="#6fabab"></path></g><g transform="translate(0, 600)"><path d="M0 -324.5C58.8 -317.2 117.5 -309.8 162.2 -281C207 -252.2 237.7 -201.9 262.4 -151.5C287.1 -101.1 305.8 -50.5 324.5 0L0 0Z" fill="#f5f9f9"></path><path d="M0 -283.9C51.4 -277.5 102.8 -271.1 142 -245.9C181.1 -220.7 208 -176.7 229.6 -132.6C251.2 -88.4 267.6 -44.2 283.9 0L0 0Z" fill="#e0edec"></path><path d="M0 -243.4C44.1 -237.9 88.1 -232.4 121.7 -210.8C155.2 -189.2 178.3 -151.4 196.8 -113.6C215.3 -75.8 229.4 -37.9 243.4 0L0 0Z" fill="#cce1e0"></path><path d="M0 -202.8C36.7 -198.2 73.4 -193.6 101.4 -175.6C129.4 -157.6 148.6 -126.2 164 -94.7C179.4 -63.2 191.1 -31.6 202.8 0L0 0Z" fill="#b8d5d4"></path><path d="M0 -162.2C29.4 -158.6 58.8 -154.9 81.1 -140.5C103.5 -126.1 118.9 -101 131.2 -75.8C143.6 -50.5 152.9 -25.3 162.2 0L0 0Z" fill="#a3c9c8"></path><path d="M0 -121.7C22 -118.9 44.1 -116.2 60.8 -105.4C77.6 -94.6 89.1 -75.7 98.4 -56.8C107.7 -37.9 114.7 -19 121.7 0L0 0Z" fill="#8fbdbc"></path><path d="M0 -81.1C14.7 -79.3 29.4 -77.5 40.6 -70.3C51.7 -63.1 59.4 -50.5 65.6 -37.9C71.8 -25.3 76.5 -12.6 81.1 0L0 0Z" fill="#7ab1b1"></path><path d="M0 -40.6C7.3 -39.6 14.7 -38.7 20.3 -35.1C25.9 -31.5 29.7 -25.2 32.8 -18.9C35.9 -12.6 38.2 -6.3 40.6 0L0 0Z" fill="#6fabab"></path></g></svg>