<svg id="visual" viewBox="0 0 900 600" width="900" height="600" xmlns="http://www.w3.org/2000/svg" xmlns:xlink="http://www.w3.org/1999/xlink" version="1.1"><rect width="900" height="600" fill="#ffffff"></rect><g><g transform="translate(583 429)"><path d="M22.3 -7.5C24.9 0.8 20.3 11.2 12.3 17.1C4.2 23 -7.2 24.3 -14.7 19.1C-22.1 14 -25.6 2.3 -22.5 -6.7C-19.4 -15.6 -9.7 -21.8 0.1 -21.8C9.8 -21.9 19.7 -15.7 22.3 -7.5Z" fill="#008080"></path></g><g transform="translate(249 156)"><path d="M16.9 -6C19.1 1.1 16 9.4 9.8 14.1C3.6 18.7 -5.7 19.6 -11.4 15.5C-17.1 11.4 -19.3 2.2 -16.8 -5.4C-14.3 -13 -7.1 -19.1 0.1 -19.2C7.4 -19.2 14.8 -13.2 16.9 -6Z" fill="#008080"></path></g><g transform="translate(719 58)"><path d="M12.7 -4.4C14.2 0.3 11.4 6.1 7 9.3C2.5 12.4 -3.6 12.9 -7.5 10.2C-11.4 7.4 -13 1.3 -11.4 -3.7C-9.8 -8.6 -4.9 -12.5 0.4 -12.6C5.6 -12.8 11.3 -9.1 12.7 -4.4Z" fill="#008080"></path></g><g transform="translate(33 326)"><path d="M18.3 -6.4C20.9 2 18.2 11.7 11.8 16.4C5.4 21.1 -4.8 20.8 -11.2 16C-17.7 11.2 -20.4 1.8 -17.9 -6.5C-15.5 -14.8 -7.7 -22.1 0.1 -22.1C7.8 -22.1 15.7 -14.9 18.3 -6.4Z" fill="#008080"></path></g></g></svg>