<svg id="visual" viewBox="0 0 900 600" width="900" height="600" xmlns="http://www.w3.org/2000/svg" xmlns:xlink="http://www.w3.org/1999/xlink" version="1.1"><rect x="0" y="0" width="900" height="600" fill="#ffffff"></rect><defs><linearGradient id="grad1_0" x1="33.3%" y1="100%" x2="100%" y2="0%"><stop offset="20%" stop-color="#e8fade" stop-opacity="1"></stop><stop offset="80%" stop-color="#e8fade" stop-opacity="1"></stop></linearGradient></defs><defs><linearGradient id="grad1_1" x1="33.3%" y1="100%" x2="100%" y2="0%"><stop offset="20%" stop-color="#e8fade" stop-opacity="1"></stop><stop offset="80%" stop-color="#f0fce9" stop-opacity="1"></stop></linearGradient></defs><defs><linearGradient id="grad1_2" x1="33.3%" y1="100%" x2="100%" y2="0%"><stop offset="20%" stop-color="#f7fdf4" stop-opacity="1"></stop><stop offset="80%" stop-color="#f0fce9" stop-opacity="1"></stop></linearGradient></defs><defs><linearGradient id="grad1_3" x1="33.3%" y1="100%" x2="100%" y2="0%"><stop offset="20%" stop-color="#f7fdf4" stop-opacity="1"></stop><stop offset="80%" stop-color="#ffffff" stop-opacity="1"></stop></linearGradient></defs><defs><linearGradient id="grad2_0" x1="0%" y1="100%" x2="66.7%" y2="0%"><stop offset="20%" stop-color="#e8fade" stop-opacity="1"></stop><stop offset="80%" stop-color="#e8fade" stop-opacity="1"></stop></linearGradient></defs><defs><linearGradient id="grad2_1" x1="0%" y1="100%" x2="66.7%" y2="0%"><stop offset="20%" stop-color="#f0fce9" stop-opacity="1"></stop><stop offset="80%" stop-color="#e8fade" stop-opacity="1"></stop></linearGradient></defs><defs><linearGradient id="grad2_2" x1="0%" y1="100%" x2="66.7%" y2="0%"><stop offset="20%" stop-color="#f0fce9" stop-opacity="1"></stop><stop offset="80%" stop-color="#f7fdf4" stop-opacity="1"></stop></linearGradient></defs><defs><linearGradient id="grad2_3" x1="0%" y1="100%" x2="66.7%" y2="0%"><stop offset="20%" stop-color="#ffffff" stop-opacity="1"></stop><stop offset="80%" stop-color="#f7fdf4" stop-opacity="1"></stop></linearGradient></defs><g transform="translate(900, 600)"><path d="M-486.7 0C-476.1 -60.5 -465.5 -120.9 -445.3 -184.5C-425.1 -248 -395.4 -314.5 -344.2 -344.2C-292.9 -373.9 -220.2 -366.7 -159.2 -384.3C-98.2 -402 -49.1 -444.4 0 -486.7L0 0Z" fill="#fbfef9"></path><path d="M-365.1 0C-357.1 -45.4 -349.1 -90.7 -334 -138.3C-318.9 -186 -296.6 -235.9 -258.1 -258.1C-219.7 -280.4 -165.1 -275 -119.4 -288.3C-73.7 -301.5 -36.8 -333.3 0 -365.1L0 0Z" fill="#f4fdee"></path><path d="M-243.4 0C-238.1 -30.2 -232.7 -60.5 -222.7 -92.2C-212.6 -124 -197.7 -157.2 -172.1 -172.1C-146.5 -186.9 -110.1 -183.4 -79.6 -192.2C-49.1 -201 -24.6 -222.2 0 -243.4L0 0Z" fill="#ecfbe3"></path><path d="M-121.7 0C-119 -15.1 -116.4 -30.2 -111.3 -46.1C-106.3 -62 -98.9 -78.6 -86 -86C-73.2 -93.5 -55 -91.7 -39.8 -96.1C-24.6 -100.5 -12.3 -111.1 0 -121.7L0 0Z" fill="#e8fade"></path></g><g transform="translate(0, 0)"><path d="M486.7 0C483.6 67.6 480.5 135.2 449.7 186.3C418.9 237.3 360.5 271.8 313.2 313.2C266 354.7 229.8 403.2 179.5 433.3C129.1 463.4 64.6 475.1 0 486.7L0 0Z" fill="#fbfef9"></path><path d="M365.1 0C362.7 50.7 360.4 101.4 337.3 139.7C314.2 178 270.4 203.8 234.9 234.9C199.5 266 172.4 302.4 134.6 325C96.8 347.5 48.4 356.3 0 365.1L0 0Z" fill="#f4fdee"></path><path d="M243.4 0C241.8 33.8 240.2 67.6 224.8 93.1C209.5 118.7 180.3 135.9 156.6 156.6C133 177.4 114.9 201.6 89.7 216.6C64.6 231.7 32.3 237.5 0 243.4L0 0Z" fill="#ecfbe3"></path><path d="M121.7 0C120.9 16.9 120.1 33.8 112.4 46.6C104.7 59.3 90.1 67.9 78.3 78.3C66.5 88.7 57.5 100.8 44.9 108.3C32.3 115.8 16.1 118.8 0 121.7L0 0Z" fill="#e8fade"></path></g></svg>