<svg id="visual" viewBox="0 0 900 600" width="900" height="600" xmlns="http://www.w3.org/2000/svg" xmlns:xlink="http://www.w3.org/1999/xlink" version="1.1"><path d="M0 187L30 177C60 167 120 147 180 147C240 147 300 167 360 178C420 189 480 191 540 184C600 177 660 161 720 148C780 135 840 125 870 120L900 115L900 0L870 0C840 0 780 0 720 0C660 0 600 0 540 0C480 0 420 0 360 0C300 0 240 0 180 0C120 0 60 0 30 0L0 0Z" fill="#ffffff"></path><path d="M0 277L30 261C60 245 120 213 180 210C240 207 300 233 360 252C420 271 480 283 540 282C600 281 660 267 720 250C780 233 840 213 870 203L900 193L900 113L870 118C840 123 780 133 720 146C660 159 600 175 540 182C480 189 420 187 360 176C300 165 240 145 180 145C120 145 60 165 30 175L0 185Z" fill="#78aead"></path><path d="M0 361L30 346C60 331 120 301 180 297C240 293 300 315 360 333C420 351 480 365 540 359C600 353 660 327 720 310C780 293 840 285 870 281L900 277L900 191L870 201C840 211 780 231 720 248C660 265 600 279 540 280C480 281 420 269 360 250C300 231 240 205 180 208C120 211 60 243 30 259L0 275Z" fill="#008080"></path><path d="M0 463L30 445C60 427 120 391 180 393C240 395 300 435 360 453C420 471 480 467 540 455C600 443 660 423 720 413C780 403 840 403 870 403L900 403L900 275L870 279C840 283 780 291 720 308C660 325 600 351 540 357C480 363 420 349 360 331C300 313 240 291 180 295C120 299 60 329 30 344L0 359Z" fill="#78aead"></path><path d="M0 601L30 601C60 601 120 601 180 601C240 601 300 601 360 601C420 601 480 601 540 601C600 601 660 601 720 601C780 601 840 601 870 601L900 601L900 401L870 401C840 401 780 401 720 411C660 421 600 441 540 453C480 465 420 469 360 451C300 433 240 393 180 391C120 389 60 425 30 443L0 461Z" fill="#ffffff"></path></svg>