<svg id="visual" viewBox="0 0 900 600" width="900" height="600" xmlns="http://www.w3.org/2000/svg" xmlns:xlink="http://www.w3.org/1999/xlink" version="1.1"><path d="M0 169L30 175C60 181 120 193 180 194C240 195 300 185 360 175C420 165 480 155 540 164C600 173 660 201 720 213C780 225 840 221 870 219L900 217L900 0L870 0C840 0 780 0 720 0C660 0 600 0 540 0C480 0 420 0 360 0C300 0 240 0 180 0C120 0 60 0 30 0L0 0Z" fill="#ffffff"></path><path d="M0 259L30 260C60 261 120 263 180 263C240 263 300 261 360 252C420 243 480 227 540 230C600 233 660 255 720 265C780 275 840 273 870 272L900 271L900 215L870 217C840 219 780 223 720 211C660 199 600 171 540 162C480 153 420 163 360 173C300 183 240 193 180 192C120 191 60 179 30 173L0 167Z" fill="#a9d2d2"></path><path d="M0 343L30 349C60 355 120 367 180 373C240 379 300 379 360 372C420 365 480 351 540 352C600 353 660 369 720 381C780 393 840 401 870 405L900 409L900 269L870 270C840 271 780 273 720 263C660 253 600 231 540 228C480 225 420 241 360 250C300 259 240 261 180 261C120 261 60 259 30 258L0 257Z" fill="#73b8b8"></path><path d="M0 415L30 427C60 439 120 463 180 473C240 483 300 479 360 469C420 459 480 443 540 439C600 435 660 443 720 453C780 463 840 475 870 481L900 487L900 407L870 403C840 399 780 391 720 379C660 367 600 351 540 350C480 349 420 363 360 370C300 377 240 377 180 371C120 365 60 353 30 347L0 341Z" fill="#a9d2d2"></path><path d="M0 601L30 601C60 601 120 601 180 601C240 601 300 601 360 601C420 601 480 601 540 601C600 601 660 601 720 601C780 601 840 601 870 601L900 601L900 485L870 479C840 473 780 461 720 451C660 441 600 433 540 437C480 441 420 457 360 467C300 477 240 481 180 471C120 461 60 437 30 425L0 413Z" fill="#ffffff"></path></svg>