<svg id="visual" viewBox="0 0 900 600" width="900" height="600" xmlns="http://www.w3.org/2000/svg" xmlns:xlink="http://www.w3.org/1999/xlink" version="1.1"><rect x="0" y="0" width="900" height="600" fill="#F1F7ED"></rect><path d="M0 106L21.5 105.7C43 105.3 86 104.7 128.8 117.5C171.7 130.3 214.3 156.7 257.2 164.7C300 172.7 343 162.3 385.8 145.2C428.7 128 471.3 104 514.2 106.7C557 109.3 600 138.7 642.8 142.8C685.7 147 728.3 126 771.2 125.5C814 125 857 145 878.5 155L900 165L900 0L878.5 0C857 0 814 0 771.2 0C728.3 0 685.7 0 642.8 0C600 0 557 0 514.2 0C471.3 0 428.7 0 385.8 0C343 0 300 0 257.2 0C214.3 0 171.7 0 128.8 0C86 0 43 0 21.5 0L0 0Z" fill="#ffffff" stroke-linecap="round" stroke-linejoin="miter"></path></svg>