<svg id="visual" viewBox="0 0 900 600" width="900" height="600" xmlns="http://www.w3.org/2000/svg" xmlns:xlink="http://www.w3.org/1999/xlink" version="1.1"><rect x="0" y="0" width="900" height="600" fill="#F1F7ED"></rect><path d="M0 73L21.5 74.5C43 76 86 79 128.8 71.7C171.7 64.3 214.3 46.7 257.2 48.5C300 50.3 343 71.7 385.8 70.5C428.7 69.3 471.3 45.7 514.2 33.2C557 20.7 600 19.3 642.8 27.3C685.7 35.3 728.3 52.7 771.2 53.8C814 55 857 40 878.5 32.5L900 25L900 0L878.5 0C857 0 814 0 771.2 0C728.3 0 685.7 0 642.8 0C600 0 557 0 514.2 0C471.3 0 428.7 0 385.8 0C343 0 300 0 257.2 0C214.3 0 171.7 0 128.8 0C86 0 43 0 21.5 0L0 0Z" fill="#ffffff" stroke-linecap="round" stroke-linejoin="miter"></path></svg>